<svg width="66" height="58" viewBox="0 0 66 58" fill="none" xmlns="http://www.w3.org/2000/svg">
<path d="M0 0L65.8093 7.91659L65.8305 44.6208L0 55.5432V0Z" fill="#F6911F"/>
<path d="M29.8756 50.5979C29.8756 50.5979 25.4991 35.7934 30.4128 13.3094C30.4128 13.3094 31.5796 8.10184 32.6604 3.93018C29.5276 9.17968 23.6431 17.5196 21.0183 30.6434C18.6899 41.1001 20.1716 52.2341 20.1716 52.2341L29.8756 50.5979Z" fill="white"/>
<path d="M0 33.6394C0 33.6394 25.422 36.8492 55.4428 29.0414C55.4428 29.0414 60.752 27.6749 65.7882 26.3477C49.7822 34.8193 34.0498 40.9091 21.6745 42.9391C9.06513 44.8522 0 44.7049 0 44.7049V33.6394Z" fill="white"/>
<path d="M49.8098 51.2218L49.5497 52.9123H51.9322L51.6929 54.406H49.3104L49.019 56.2238H51.7137L51.464 57.787H46.9902L48.2803 49.6587H52.7541L52.5044 51.2218H49.8098Z" fill="white"/>
<path d="M55.5218 55.9344L57.5194 51.326H59.4233L56.3333 57.787H54.1276L53.0976 51.326H54.9912L55.5218 55.9344Z" fill="white"/>
<path d="M63.9073 56.3512H61.1814L60.5155 57.787H58.6532L62.586 49.6587H64.646L65.9985 57.787H64.1154L63.9073 56.3512ZM63.6992 54.846L63.2726 51.8355L61.8785 54.846H63.6992Z" fill="white"/>
</svg>
